<svg xmlns="http://www.w3.org/2000/svg" width="30" height="30" viewBox="0 0 30 30">
    <g data-name="entertainment&amp;events">
        <path data-name="Rectangle 5309" style="fill:transparent" d="M0 0h30v30H0z"/>
        <g data-name="Group 1153">
            <path data-name="Path 1644" d="M363.041 209.425a.378.378 0 1 0-.227-.484.377.377 0 0 0 .227.484z" transform="translate(-342.423 -195.55)" style="fill:#363d43"/>
            <path data-name="Path 1645" d="M5.99 18.594a4.739 4.739 0 0 0 2.8 0c.274-.084.549-.185.813-.3a8.472 8.472 0 0 0 3.309 7.764 4.822 4.822 0 0 0 3.061.966 8.476 8.476 0 0 0 7.964-5.584l2.28-6.259v-.005l.76-2.1a.531.531 0 0 0-.179-.6 23.842 23.842 0 0 0-12.031-4.707V1.557a.532.532 0 0 0-.375-.507 23.854 23.854 0 0 0-14.017.006.531.531 0 0 0-.375.5v8.919a8.514 8.514 0 0 0 5.99 8.117zm19.866-5.51-.375 1.034a21.777 21.777 0 0 0-3.927-2.349.529.529 0 0 0-.443.961 20.825 20.825 0 0 1 3.99 2.428l-2.153 5.916a7.4 7.4 0 0 1-7.357 4.882 3.683 3.683 0 0 1-2.043-.744 7.418 7.418 0 0 1-2.771-7.531 8.5 8.5 0 0 0 3.151-3.515.525.525 0 0 0 .5-.079 1.038 1.038 0 0 1 1.008-.158 1.058 1.058 0 0 1 .686.844.528.528 0 0 0 1.045-.148 2.111 2.111 0 0 0-2.755-1.715 8.507 8.507 0 0 0 .348-1.969 20.774 20.774 0 0 1 3.082.591.668.668 0 0 0 .137.021.523.523 0 0 0 .507-.391.534.534 0 0 0-.369-.649 21.752 21.752 0 0 0-3.346-.633V8.819a22.867 22.867 0 0 1 11.085 4.265zm-24.8-8.9a20.921 20.921 0 0 1 4.608-.924.527.527 0 1 0-.09-1.05 21.737 21.737 0 0 0-4.523.866V1.953a22.8 22.8 0 0 1 12.667 0v1.124a22.146 22.146 0 0 0-4.491-.866.527.527 0 1 0-.09 1.05 20.989 20.989 0 0 1 4.581.918v6.3a7.451 7.451 0 0 1-3.679 6.413 7.282 7.282 0 0 1-1.568.686 3.723 3.723 0 0 1-2.174 0 7.42 7.42 0 0 1-5.246-7.1z" style="fill:#363d43" transform="translate(1 2)"/>
            <path data-name="Path 1646" d="M60.611 190a.407.407 0 0 0-.611.35 3.258 3.258 0 0 0 6.515 0 .4.4 0 0 0-.2-.35.4.4 0 0 0-.407 0 5.325 5.325 0 0 1-5.294 0zm2.647 2.8a2.45 2.45 0 0 1-2.341-1.743 6.137 6.137 0 0 0 4.683 0 2.451 2.451 0 0 1-2.342 1.743z" transform="translate(-55.188 -176.809)" style="fill:#363d43"/>
            <path data-name="Path 1647" d="M225.319 338a.376.376 0 0 0 .064.371.384.384 0 0 0 .355.129 4.948 4.948 0 0 1 4.622 1.683.384.384 0 0 0 .356.129.376.376 0 0 0 .287-.242 3.025 3.025 0 1 0-5.684-2.07zm5.109 1.032v.132a5.7 5.7 0 0 0-4.085-1.486 2.27 2.27 0 0 1 4.088 1.354z" transform="translate(-211.703 -314.414)" style="fill:#363d43"/>
            <path data-name="Path 1648" d="M369.313 284.617a.381.381 0 0 0 .533.049.76.76 0 0 1 1.237.477.378.378 0 1 0 .749-.106 1.51 1.51 0 0 0-2.466-.953.379.379 0 0 0-.053.533z" transform="translate(-348.309 -266.341)" style="fill:#363d43"/>
        </g>
    </g>
</svg>
