<svg xmlns="http://www.w3.org/2000/svg" width="30" height="30" viewBox="0 0 30 30">
    <path data-name="Path 1730" d="M0 0h30v30H0z" style="fill:transparent"/>
    <g data-name="Group 1161">
        <g data-name="Group 1194">
            <g data-name="Group 1193">
                <path data-name="Path 1691" d="m28.115 6-2.382-1.09-2.1-3.355A3.313 3.313 0 0 0 20.8 0h-8.955a3.342 3.342 0 0 0-2.656 1.306L6.473 4.861 1.945 6.1A2.655 2.655 0 0 0 0 8.66v1.732a2.654 2.654 0 0 0 2.632 2.674h.389a3.375 3.375 0 0 0 6.534 0h10.21a3.375 3.375 0 0 0 6.534 0h.729a2.654 2.654 0 0 0 2.632-2.674V8.417A2.648 2.648 0 0 0 28.115 6zM6.284 14.367a2.158 2.158 0 1 1 2.158-2.158 2.158 2.158 0 0 1-2.158 2.158zm16.744 0a2.158 2.158 0 1 1 2.158-2.158 2.158 2.158 0 0 1-2.158 2.158zm4-2.516h-.644a3.375 3.375 0 0 0-6.71 0H9.639a3.375 3.375 0 0 0-6.71 0h-.3a1.435 1.435 0 0 1-1.416-1.459V8.66a1.432 1.432 0 0 1 1.048-1.392L7 5.974a.593.593 0 0 0 .322-.219l2.828-3.714a2.148 2.148 0 0 1 1.7-.827h8.95a2.094 2.094 0 0 1 1.8.985l2.2 3.513a.6.6 0 0 0 .261.231L27.6 7.1a1.431 1.431 0 0 1 .833 1.313v1.975h.006a1.435 1.435 0 0 1-1.411 1.463z" transform="translate(0 7.001)" style="fill:#363d43"/>
            </g>
        </g>
        <path data-name="Path 1692" d="M21.2 7.1H9.7a.5.5 0 0 1 0-1h11.5a.472.472 0 0 1 .5.5.536.536 0 0 1-.5.5z" transform="translate(1.034 7)" style="fill:#363d43"/>
    </g>
</svg>
