<svg xmlns="http://www.w3.org/2000/svg" width="30" height="30" viewBox="0 0 30 30">
    <path data-name="Rectangle 5325" style="fill:transparent" d="M0 0h30v30H0z"/>
    <path data-name="Path 1599" d="M3.385 11.964a.485.485 0 0 0-.236.632l1.085 2.333a.494.494 0 0 0 .271.252.478.478 0 0 0 .163.027.508.508 0 0 0 .2-.043l8.209-3.833-.74 7.775a.493.493 0 0 0 .159.407 2.113 2.113 0 0 0 1.276.486 1.568 1.568 0 0 0 .38-.047 2.453 2.453 0 0 0 1.535-1.783l3.232-9.57 6.4-2.984c1.884-.88 2.853-2.663 2.2-4.05A2.436 2.436 0 0 0 25.632.252 4.453 4.453 0 0 0 23 .659L15.613 4.12 7.671 1.008a2.45 2.45 0 0 0-2.349.035A1.974 1.974 0 0 0 4.6 2.6a.473.473 0 0 0 .209.38l5.345 3.674L7.094 8.1 1.966 6.8a.482.482 0 0 0-.535.233L.152 9.337a.486.486 0 0 0 .252.682l3.8 1.57zM5.6 2.36a.819.819 0 0 1 .291-.523c.275-.2.779-.171 1.45.081l7.069 2.76-3.227 1.508zM1.249 9.333l.841-1.492 4.942 1.224a.5.5 0 0 0 .318-.027l16.057-7.5a3.54 3.54 0 0 1 2.062-.329 1.508 1.508 0 0 1 1.178.764c.407.868-.391 2.139-1.74 2.767l-5.562 2.608.337-1a.49.49 0 1 0-.93-.31l-3.976 11.829c-.236.671-.531 1.074-.86 1.159a.81.81 0 0 1-.589-.112l.965-10.143a.485.485 0 1 0-.965-.089l-.151 1.55L4.888 14.1l-.682-1.45 1.36-.636a.484.484 0 0 0 0-.884z" transform="translate(.906 4.798)" style="fill:#363d43"/>
</svg>
