<svg xmlns="http://www.w3.org/2000/svg" width="30" height="30" viewBox="0 0 30 30">
    <path data-name="Rectangle 5307" style="fill:transparent" d="M0 0h30v30H0z"/>
    <g data-name="Group 1152">
        <path data-name="Path 1635" d="M209.043 336.287h-3.767a.375.375 0 0 1-.375-.375v-2.637a.375.375 0 0 1 .375-.375h3.767a.375.375 0 0 1 .375.375v2.637a.375.375 0 0 1-.375.375zm-3.392-.755h3.016v-1.886h-3.016z" transform="translate(-192.033 -311.187)" style="fill:#363d43"/>
        <path data-name="Rectangle 5248" transform="translate(14.749 22.084)" style="fill:#363d43" d="M0 0h.755v2.637H0z"/>
        <path data-name="Path 1636" d="M170.11 20.1h-7.535a.4.4 0 0 1-.375-.417V.417a.4.4 0 0 1 .375-.417h7.539a.4.4 0 0 1 .375.417v19.261a.4.4 0 0 1-.379.422zm-7.159-.839h6.784V.839h-6.784z" transform="translate(-151.218 5)" style="fill:#363d43"/>
        <path data-name="Path 1637" d="M97.292 52.79h-3.017a.4.4 0 0 1-.375-.421V34.621a.4.4 0 0 1 .375-.421h3.016a.4.4 0 0 1 .375.421v17.748a.4.4 0 0 1-.374.421zm-2.641-.847h2.261v-16.9h-2.261z" transform="translate(-86.953 -27.69)" style="fill:#363d43"/>
        <path data-name="Rectangle 5249" transform="translate(6.491 6.506)" style="fill:#363d43" d="M0 0h1.131v.755H0z"/>
        <path data-name="Rectangle 5250" transform="translate(10.226 5)" style="fill:#363d43" d="M0 0h9.8v.755H0z"/>
        <path data-name="Rectangle 5251" transform="translate(12.111 19.331)" style="fill:#363d43" d="M0 0h.755v1.131H0z"/>
        <path data-name="Rectangle 5252" transform="translate(13.868 19.331)" style="fill:#363d43" d="M0 0h.755v1.131H0z"/>
        <path data-name="Rectangle 5253" transform="translate(15.624 19.331)" style="fill:#363d43" d="M0 0h.755v1.131H0z"/>
        <path data-name="Rectangle 5254" transform="translate(17.386 19.331)" style="fill:#363d43" d="M0 0h.755v1.131H0z"/>
        <path data-name="Rectangle 5255" transform="translate(12.111 17.226)" style="fill:#363d43" d="M0 0h.755v1.131H0z"/>
        <path data-name="Rectangle 5256" transform="translate(13.868 17.226)" style="fill:#363d43" d="M0 0h.755v1.131H0z"/>
        <path data-name="Rectangle 5257" transform="translate(15.624 17.226)" style="fill:#363d43" d="M0 0h.755v1.131H0z"/>
        <path data-name="Rectangle 5258" transform="translate(17.386 17.226)" style="fill:#363d43" d="M0 0h.755v1.131H0z"/>
        <path data-name="Rectangle 5259" transform="translate(12.111 15.117)" style="fill:#363d43" d="M0 0h.755v1.131H0z"/>
        <path data-name="Rectangle 5260" transform="translate(13.868 15.117)" style="fill:#363d43" d="M0 0h.755v1.131H0z"/>
        <path data-name="Rectangle 5261" transform="translate(15.624 15.117)" style="fill:#363d43" d="M0 0h.755v1.131H0z"/>
        <path data-name="Rectangle 5262" transform="translate(17.386 15.117)" style="fill:#363d43" d="M0 0h.755v1.131H0z"/>
        <path data-name="Rectangle 5263" transform="translate(12.111 13.008)" style="fill:#363d43" d="M0 0h.755v1.131H0z"/>
        <path data-name="Rectangle 5264" transform="translate(13.868 13.008)" style="fill:#363d43" d="M0 0h.755v1.131H0z"/>
        <path data-name="Rectangle 5265" transform="translate(15.624 13.008)" style="fill:#363d43" d="M0 0h.755v1.131H0z"/>
        <path data-name="Rectangle 5266" transform="translate(17.386 13.008)" style="fill:#363d43" d="M0 0h.755v1.131H0z"/>
        <path data-name="Rectangle 5267" transform="translate(12.111 10.903)" style="fill:#363d43" d="M0 0h.755v1.131H0z"/>
        <path data-name="Rectangle 5268" transform="translate(13.868 10.903)" style="fill:#363d43" d="M0 0h.755v1.131H0z"/>
        <path data-name="Rectangle 5269" transform="translate(15.624 10.903)" style="fill:#363d43" d="M0 0h.755v1.131H0z"/>
        <path data-name="Rectangle 5270" transform="translate(17.386 10.903)" style="fill:#363d43" d="M0 0h.755v1.131H0z"/>
        <path data-name="Rectangle 5271" transform="translate(12.111 8.794)" style="fill:#363d43" d="M0 0h.755v1.131H0z"/>
        <path data-name="Rectangle 5272" transform="translate(13.868 8.794)" style="fill:#363d43" d="M0 0h.755v1.131H0z"/>
        <path data-name="Rectangle 5273" transform="translate(15.624 8.794)" style="fill:#363d43" d="M0 0h.755v1.131H0z"/>
        <path data-name="Rectangle 5274" transform="translate(17.386 8.794)" style="fill:#363d43" d="M0 0h.755v1.131H0z"/>
        <path data-name="Rectangle 5275" transform="translate(12.111 6.506)" style="fill:#363d43" d="M0 0h.755v1.131H0z"/>
        <path data-name="Rectangle 5276" transform="translate(13.868 6.506)" style="fill:#363d43" d="M0 0h.755v1.131H0z"/>
        <path data-name="Rectangle 5277" transform="translate(15.624 6.506)" style="fill:#363d43" d="M0 0h.755v1.131H0z"/>
        <path data-name="Rectangle 5278" transform="translate(17.386 6.506)" style="fill:#363d43" d="M0 0h.755v1.131H0z"/>
        <path data-name="Rectangle 5279" transform="translate(8.593 21.708)" style="fill:#363d43" d="M0 0h.755v1.131H0z"/>
        <path data-name="Rectangle 5280" transform="translate(8.593 19.331)" style="fill:#363d43" d="M0 0h.755v1.131H0z"/>
        <path data-name="Rectangle 5281" transform="translate(8.593 17.226)" style="fill:#363d43" d="M0 0h.755v1.131H0z"/>
        <path data-name="Rectangle 5282" transform="translate(8.593 15.117)" style="fill:#363d43" d="M0 0h.755v1.131H0z"/>
        <path data-name="Rectangle 5283" transform="translate(8.593 13.008)" style="fill:#363d43" d="M0 0h.755v1.131H0z"/>
        <path data-name="Rectangle 5284" transform="translate(8.593 10.903)" style="fill:#363d43" d="M0 0h.755v1.131H0z"/>
        <path data-name="Rectangle 5285" transform="translate(8.593 8.794)" style="fill:#363d43" d="M0 0h.755v1.131H0z"/>
        <path data-name="Path 1638" d="M336.192 52.79h-3.016a.4.4 0 0 1-.375-.421V34.621a.4.4 0 0 1 .375-.421h3.016a.4.4 0 0 1 .375.421v17.748a.4.4 0 0 1-.375.421zm-2.637-.847h2.261v-16.9h-2.261z" transform="translate(-313.267 -27.69)" style="fill:#363d43"/>
        <path data-name="Rectangle 5286" transform="translate(22.626 6.506)" style="fill:#363d43" d="M0 0h1.131v.755H0z"/>
        <path data-name="Rectangle 5287" transform="translate(20.899 21.708)" style="fill:#363d43" d="M0 0h.755v1.131H0z"/>
        <path data-name="Rectangle 5288" transform="translate(20.899 19.331)" style="fill:#363d43" d="M0 0h.755v1.131H0z"/>
        <path data-name="Rectangle 5289" transform="translate(20.899 17.226)" style="fill:#363d43" d="M0 0h.755v1.131H0z"/>
        <path data-name="Rectangle 5290" transform="translate(20.899 15.117)" style="fill:#363d43" d="M0 0h.755v1.131H0z"/>
        <path data-name="Rectangle 5291" transform="translate(20.899 13.008)" style="fill:#363d43" d="M0 0h.755v1.131H0z"/>
        <path data-name="Rectangle 5292" transform="translate(20.899 10.903)" style="fill:#363d43" d="M0 0h.755v1.131H0z"/>
        <path data-name="Rectangle 5293" transform="translate(20.899 8.794)" style="fill:#363d43" d="M0 0h.755v1.131H0z"/>
        <path data-name="Rectangle 5294" transform="translate(2 24.345)" style="fill:#363d43" d="M0 0h4.522v.755H0z"/>
        <path data-name="Rectangle 5295" transform="translate(23.725 24.345)" style="fill:#363d43" d="M0 0h4.522v.755H0z"/>
        <path data-name="Rectangle 5296" transform="translate(3.506 16.81)" style="fill:#363d43" d="M0 0h.755v7.914H0z"/>
        <path data-name="Rectangle 5297" transform="rotate(-53 18.285 6.454)" style="fill:#363d43" d="M0 0h.755v3.767H0z"/>
        <path data-name="Rectangle 5298" transform="rotate(-36.883 29.364 6.208)" style="fill:#363d43" d="M0 0h3.767v.755H0z"/>
        <path data-name="Rectangle 5299" transform="translate(25.986 16.81)" style="fill:#363d43" d="M0 0h.755v7.914H0z"/>
        <path data-name="Rectangle 5300" transform="rotate(-53 29.523 -16.026)" style="fill:#363d43" d="M0 0h.755v3.767H0z"/>
        <path data-name="Rectangle 5301" transform="rotate(-36.857 40.624 -27.518)" style="fill:#363d43" d="M0 0h3.767v.755H0z"/>
    </g>
</svg>
