<svg xmlns="http://www.w3.org/2000/svg" width="30" height="30" viewBox="0 0 30 30">
    <g data-name="Group 1251">
        <path data-name="Rectangle 5312" style="fill:transparent" d="M0 0h30v30H0z"/>
        <g data-name="Group 1156">
            <path data-name="Path 1660" d="M18.389 22.228a2.616 2.616 0 0 0 2.511-2.609V4.138a3.647 3.647 0 0 0-2.939-3.58A28.784 28.784 0 0 0 12.326 0H9.571a28.6 28.6 0 0 0-5.557.548 3.663 3.663 0 0 0-2.938 3.579v15.492a2.612 2.612 0 0 0 2.552 2.609l-3.5 3.6a.524.524 0 0 0 .376.887h3.734a.522.522 0 0 0 .423-.214l1.581-2.186h9.538l1.581 2.185a.522.522 0 0 0 .423.214h3.679a.524.524 0 0 0 .48-.318.513.513 0 0 0-.1-.564zm-16.27-2.609V4.133a2.61 2.61 0 0 1 2.1-2.557 27.035 27.035 0 0 1 5.354-.532h2.755a27.9 27.9 0 0 1 5.432.532 2.612 2.612 0 0 1 2.1 2.557v15.486a1.57 1.57 0 0 1-1.565 1.565H3.685a1.567 1.567 0 0 1-1.566-1.565zm1.852 6.053H1.739l3.334-3.444h1.393zM7 23.272l.757-1.044h6.512l.757 1.044zm11.051 2.4-2.494-3.444h1.388l3.3 3.444z" transform="translate(4.015 2)" style="fill:#363d43"/>
            <path data-name="Path 1661" d="M61.422 89.705h14.61a.523.523 0 0 0 .522-.522v-8.661a.523.523 0 0 0-.522-.522h-14.61a.523.523 0 0 0-.522.522v8.662a.52.52 0 0 0 .522.521zm14.088-1.043h-6.261v-7.618h6.261zm-13.566-7.618H68.2v7.618h-6.256z" transform="translate(-53.722 -73.826)" style="fill:#363d43"/>
            <path data-name="Path 1662" d="M282.987 296a2.087 2.087 0 1 0 2.087 2.087 2.087 2.087 0 0 0-2.087-2.087zm0 3.131a1.044 1.044 0 1 1 1.044-1.044 1.047 1.047 0 0 1-1.044 1.044z" transform="translate(-262.243 -278.555)" style="fill:#363d43"/>
            <path data-name="Path 1663" d="M62.987 300.174a2.087 2.087 0 1 0-2.087-2.087 2.087 2.087 0 0 0 2.087 2.087zm0-3.131a1.044 1.044 0 1 1-1.044 1.044 1.047 1.047 0 0 1 1.044-1.043z" transform="translate(-53.722 -278.555)" style="fill:#363d43"/>
            <path data-name="Path 1664" d="M165.6 306h-4.174a.522.522 0 1 0 0 1.044h4.174a.522.522 0 0 0 0-1.044z" transform="translate(-148.504 -288.033)" style="fill:#363d43"/>
            <path data-name="Path 1665" d="M165.6 346h-4.174a.522.522 0 1 0 0 1.044h4.174a.522.522 0 0 0 0-1.044z" transform="translate(-148.504 -325.946)" style="fill:#363d43"/>
        </g>
    </g>
</svg>
