<svg xmlns="http://www.w3.org/2000/svg" width="30" height="30" viewBox="0 0 30 30">
    <path data-name="Rectangle 5315" style="fill:transparent" d="M0 0h30v30H0z"/>
    <g data-name="Group 1159">
        <g data-name="Group 1166">
            <g data-name="Group 1165">
                <path data-name="Path 1673" d="M115.723 206.2a2.523 2.523 0 1 0 2.523 2.523 2.523 2.523 0 0 0-2.523-2.523zm0 3.9a1.376 1.376 0 1 1 1.376-1.376 1.38 1.38 0 0 1-1.376 1.376z" transform="translate(-106.71 -187.378)" style="fill:#363d43"/>
            </g>
        </g>
        <g data-name="Group 1168">
            <g data-name="Group 1167">
                <path data-name="Path 1674" d="M101.914 0h-2.941a.573.573 0 1 0 0 1.147h2.941a2 2 0 0 1 1.921 1.468h-4.862a.575.575 0 0 0-.573.573v5.154a.575.575 0 0 0 .573.573h4.93v4.867h-1.68a2.523 2.523 0 0 0-4.919 0h-.052V3.193a.575.575 0 0 0-.573-.573h-4.586a.575.575 0 0 0-.573.573V7.8H80.873a.573.573 0 0 0 0 1.147H91.52v4.839H88.6a.573.573 0 0 0 0 1.147h8.71a2.522 2.522 0 0 0 4.907 0h2.259a.575.575 0 0 0 .573-.573V3.142A3.145 3.145 0 0 0 101.914 0zm-5.808 8.2h-.361a.573.573 0 0 0 0 1.147h.361v4.432h-3.44V3.767h3.44zm3.658 7.516a1.376 1.376 0 1 1 1.376-1.376 1.38 1.38 0 0 1-1.376 1.38zm4.136-7.948h-4.354V3.761h4.354z" transform="translate(-75.696 7)" style="fill:#363d43"/>
            </g>
        </g>
        <g data-name="Group 1170">
            <g data-name="Group 1169">
                <path data-name="Path 1675" d="M356.98.166a.581.581 0 0 0-.814 0 .567.567 0 0 0-.166.407.592.592 0 0 0 .166.407.558.558 0 0 0 .407.166.592.592 0 0 0 .407-.166.558.558 0 0 0 .166-.407.592.592 0 0 0-.166-.407z" transform="translate(-335.59 7)" style="fill:#363d43"/>
            </g>
        </g>
        <g data-name="Group 1172">
            <g data-name="Group 1171">
                <path data-name="Path 1676" d="M18.69 0H3.136a3.146 3.146 0 0 0-3.1 2.672.558.558 0 0 0-.036.195v11.489a.575.575 0 0 0 .573.573H4.89a.573.573 0 1 0 0-1.147H1.147V6.65H3.1a.575.575 0 0 0 .573-.573v-3.21a.575.575 0 0 0-.573-.574H1.336a2 2 0 0 1 1.806-1.146H18.69a.573.573 0 1 0 0-1.147zM2.523 3.44V5.5H1.147V3.44z" transform="translate(0 7)" style="fill:#363d43"/>
            </g>
        </g>
        <g data-name="Group 1174">
            <g data-name="Group 1173">
                <path data-name="Path 1677" d="M44.98 136.166a.567.567 0 0 0-.407-.166.592.592 0 0 0-.407.166.567.567 0 0 0-.166.407.6.6 0 0 0 .166.407.567.567 0 0 0 .407.166.592.592 0 0 0 .407-.166.567.567 0 0 0 .166-.407.592.592 0 0 0-.166-.407z" transform="translate(-41.477 -121.203)" style="fill:#363d43"/>
            </g>
        </g>
        <g data-name="Group 1176">
            <g data-name="Group 1175">
                <path data-name="Path 1678" d="M183.784 40h-3.21a.575.575 0 0 0-.573.573v3.211a.575.575 0 0 0 .573.573h3.21a.575.575 0 0 0 .573-.573v-3.211a.575.575 0 0 0-.573-.573zm-.573 3.211h-2.064v-2.064h2.064z" transform="translate(-169.681 -30.707)" style="fill:#363d43"/>
            </g>
        </g>
        <g data-name="Group 1178">
            <g data-name="Group 1177">
                <path data-name="Path 1679" d="M87.784 40h-3.21a.575.575 0 0 0-.573.573v3.211a.575.575 0 0 0 .573.573h3.21a.575.575 0 0 0 .573-.573v-3.211a.575.575 0 0 0-.573-.573zm-.573 3.211h-2.064v-2.064h2.064z" transform="translate(-79.184 -30.707)" style="fill:#363d43"/>
            </g>
        </g>
    </g>
</svg>
