<svg xmlns="http://www.w3.org/2000/svg" width="30" height="30" viewBox="0 0 30 30">
    <path data-name="Rectangle 5313" style="fill:transparent" d="M0 0h30v30H0z"/>
    <g data-name="Group 1157">
        <path data-name="Path 1666" d="M7.167 6.915H3.751l-.779-5.472A1.447 1.447 0 0 0 .1 1.8l.649 5.852a2.385 2.385 0 0 0 1.1 1.756L0 15.886l.923.264 1.828-6.4a2.077 2.077 0 0 0 .384.036h3.56v6.232h.959V9.7a1.434 1.434 0 0 0-.485-2.787zm0 1.912H3.134A1.434 1.434 0 0 1 1.708 7.55L1.061 1.7a.484.484 0 0 1 .485-.539.489.489 0 0 1 .479.419l.846 5.88a.483.483 0 0 0 .473.413h3.835a.481.481 0 0 1 .479.479.49.49 0 0 1-.491.473zm0 0" transform="translate(1 6.797)" style="fill:#363d43"/>
        <path data-name="Path 1667" d="M342.3 9.293a2.4 2.4 0 0 0 1.1-1.756l.647-5.849a1.447 1.447 0 0 0-2.871-.366l-.776 5.466h-3.42a1.434 1.434 0 0 0-.479 2.787v6.316h.959V9.659h3.554a2.077 2.077 0 0 0 .384-.036l1.828 6.4.923-.264zm-1.282-.581h-4.033a.479.479 0 1 1 0-.959h3.835a.473.473 0 0 0 .473-.413l.839-5.879a.494.494 0 0 1 .479-.419.5.5 0 0 1 .366.162.481.481 0 0 1 .12.378l-.647 5.849a1.445 1.445 0 0 1-1.432 1.282zm0 0" transform="translate(-314.436 6.912)" style="fill:#363d43"/>
        <path data-name="Path 1668" d="M122.147 12.938h-1.438V2.877h5.753a.481.481 0 0 0 .479-.479V.479a.481.481 0 0 0-.479-.479h-14.383a.481.481 0 0 0-.479.479V2.4a.481.481 0 0 0 .479.479h5.753v10.059h-1.438a.481.481 0 0 0-.479.479v1.918a.481.481 0 0 0 .479.479h5.753a.481.481 0 0 0 .479-.479v-1.917a.481.481 0 0 0-.479-.479zm-9.588-11.02V.959h13.418v.959zm7.191.959v10.061h-.959V2.877zm1.918 11.979h-4.794V13.9h4.794zm0 0" transform="translate(-103.912 7)" style="fill:#363d43"/>
    </g>
</svg>
