<svg xmlns="http://www.w3.org/2000/svg" width="30" height="30" viewBox="0 0 30 30">
    <g data-name="Group 1257">
        <path data-name="Rectangle 5318" style="fill:transparent" d="M0 0h30v30H0z"/>
        <g data-name="Group 1170">
            <g data-name="Group 1237">
                <path data-name="Path 1722" d="M23.907 17.862A4.2 4.2 0 0 0 19.9 14.9a4.2 4.2 0 0 0-1.649.337l-4.111-4.113 5.455-5.415 1.289-.034a.465.465 0 0 0 .377-.223l1.849-3.11a.458.458 0 0 0-.068-.559l-1.6-1.6a.457.457 0 0 0-.559-.068l-3.11 1.849a.451.451 0 0 0-.223.377l-.034 1.289-5.442 5.434-3.726-3.737a4.177 4.177 0 0 0-6.43-4.188.452.452 0 0 0-.12.633.462.462 0 0 0 .154.143l2.072 1.159A1.267 1.267 0 0 1 4.2 4.768c-.371.656-1.078.993-1.541.742L.743 4.466a.46.46 0 0 0-.622.183.466.466 0 0 0-.057.251 4.168 4.168 0 0 0 5.808 3.577l3.395 3.395-1.472 1.472-.331-.331a.951.951 0 0 0-1.318 0l-.456.456a.913.913 0 0 0-.051 1.255L.241 20.11a.911.911 0 0 0-.029 1.29l.029.029 1.541 1.541a.911.911 0 0 0 1.289.03l.029-.029 5.4-5.4a.913.913 0 0 0 1.255-.051l.456-.456a.911.911 0 0 0 .029-1.289l-.029-.029-.331-.331 1.461-1.495 4.428 4.428a4.172 4.172 0 0 0 7.1 3.612.459.459 0 0 0-.04-.645.547.547 0 0 0-.165-.1l-2.568-.69A.833.833 0 0 1 19.56 20a1.7 1.7 0 0 1-.046-1.078c.194-.719.8-1.227 1.312-1.09l2.545.685a.53.53 0 0 0 .588-.451.438.438 0 0 0-.052-.204zm-5.62-13.727a.446.446 0 0 0 .131-.308l.034-1.221 2.59-1.541 1.1 1.1-1.51 2.58-1.244.046a.473.473 0 0 0-.308.131l-5.569 5.569-.786-.791zM2.455 22.324.891 20.766l5.426-5.415.787.787.747.776zm6.681-5.477-.6-.6-.236-.239-1.92-1.928.456-.456L9.575 16.4zm.086-2.083-.787-.787L9.906 12.5l.787.787zm11.833 2.2a1.7 1.7 0 0 0-.417-.057 2.242 2.242 0 0 0-2.014 1.793 2.606 2.606 0 0 0 .086 1.666 1.741 1.741 0 0 0 1.147 1.05l1.7.456a3.263 3.263 0 0 1-4.844-3.555.446.446 0 0 0-.126-.422L6.294 7.6a.449.449 0 0 0-.536-.063 3.273 3.273 0 0 1-4.6-1.774l1.042.58a1.612 1.612 0 0 0 .793.205 2.39 2.39 0 0 0 1.991-1.3 2.134 2.134 0 0 0-.536-2.938l-1.332-.754A3.264 3.264 0 0 1 7.287 3.53 3.3 3.3 0 0 1 7.4 5.367a.446.446 0 0 0 .126.422l10.31 10.3a.45.45 0 0 0 .536.08 3.272 3.272 0 0 1 4.342 1.232z" transform="translate(3.041 2.947)" style="fill:#363d43"/>
            </g>
        </g>
    </g>
</svg>
