<svg xmlns="http://www.w3.org/2000/svg" width="30" height="30" viewBox="0 0 30 30">
    <defs>
        <clipPath id="qiksu7z5ya">
            <path data-name="Rectangle 5304" transform="translate(275 4775)" style="fill:#fff" d="M0 0h30v30H0z"/>
        </clipPath>
        <clipPath id="dy87gq578b">
            <path data-name="Rectangle 5245" style="fill:#363d43" d="M0 0h24v24H0z"/>
        </clipPath>
    </defs>
    <g data-name="Group 1150" transform="translate(-275 -4775)" style="clip-path:url(#qiksu7z5ya)">
        <g data-name="Group 1147">
            <g data-name="Group 1145" style="clip-path:url(#dy87gq578b)" transform="translate(278 4778)">
                <path data-name="Path 1610" d="M139.645 300.2a2.183 2.183 0 1 0 2.045 2.179 2.123 2.123 0 0 0-2.045-2.179zm0 3.268a1.092 1.092 0 1 1 1.023-1.089 1.06 1.06 0 0 1-1.023 1.089zm0 0" transform="translate(-129.173 -280.616)" style="fill:#363d43"/>
                <path data-name="Path 1643" d="M139.645 300.2a2.183 2.183 0 1 0 2.045 2.179 2.123 2.123 0 0 0-2.045-2.179zm0 3.268a1.092 1.092 0 1 1 1.023-1.089 1.06 1.06 0 0 1-1.023 1.089zm0 0" transform="translate(-121.493 -280.616)" style="fill:#363d43"/>
            </g>
            <g data-name="Group 1146" style="clip-path:url(#dy87gq578b)" transform="translate(278 4778)">
                <path data-name="Path 1611" d="M19.407 7.819A5.415 5.415 0 0 0 19.713 6 5.049 5.049 0 0 0 14.832.8 5.049 5.049 0 0 0 9.952 6a5.542 5.542 0 0 0 .306 1.82h-3.6L4.752.859H0v1.03h3.981l4.544 16.485H19.86l4.146-10.555zm-4.569-5.93A3.989 3.989 0 0 1 18.7 6a3.989 3.989 0 0 1-3.858 4.11A3.989 3.989 0 0 1 10.98 6a3.994 3.994 0 0 1 3.858-4.11zm4.366 15.4H9.247l-2.29-8.38h3.834a4.719 4.719 0 0 0 8.084 0h3.6zm0 0" transform="translate(0 -.748)" style="fill:#363d43"/>
            </g>
        </g>
        <path data-name="Path 1612" d="M205.851 46.51h.855v-1.5h1.5v-.86h-1.5V42.6h-.855v1.545H204.3v.86h1.551zm0 0" transform="translate(86.689 4738.467)" style="fill:#363d43"/>
    </g>
</svg>
